<?xml version="1.0" encoding="UTF-8" standalone="no"?>
<!-- Created with Inkscape (http://www.inkscape.org/) -->

<svg
   width="120.15666mm"
   height="126.98mm"
   viewBox="0 0 120.15666 126.98"
   version="1.1"
   id="svg1"
   xml:space="preserve"
   inkscape:version="1.4 (e7c3feb1, 2024-10-09)"
   sodipodi:docname="chi.svg"
   xmlns:inkscape="http://www.inkscape.org/namespaces/inkscape"
   xmlns:sodipodi="http://sodipodi.sourceforge.net/DTD/sodipodi-0.dtd"
   xmlns="http://www.w3.org/2000/svg"
   xmlns:svg="http://www.w3.org/2000/svg"><sodipodi:namedview
     id="namedview1"
     pagecolor="#ffffff"
     bordercolor="#000000"
     borderopacity="0.25"
     inkscape:showpageshadow="2"
     inkscape:pageopacity="0.0"
     inkscape:pagecheckerboard="0"
     inkscape:deskcolor="#d1d1d1"
     inkscape:document-units="mm"
     inkscape:zoom="0.46530067"
     inkscape:cx="141.84377"
     inkscape:cy="388.99579"
     inkscape:window-width="1584"
     inkscape:window-height="949"
     inkscape:window-x="107"
     inkscape:window-y="25"
     inkscape:window-maximized="0"
     inkscape:current-layer="layer1"><inkscape:page
       x="0"
       y="0"
       width="120.15666"
       height="126.98"
       id="page1"
       margin="82.451172 46.627556 88.706085 44.353043"
       bleed="0" /></sodipodi:namedview><defs
     id="defs1" /><g
     inkscape:label="Layer 1"
     inkscape:groupmode="layer"
     id="layer1"
     transform="translate(-44.353044,-83.019796)"><path
       style="display:inline;fill:#ffffff;stroke:#b3b3b3;stroke-opacity:1"
       d="m 56.817646,197.50625 c 0,-0.93269 0.12284,-1.09171 10.96458,-14.1938 1.62561,-1.96454 7.40888,-8.98922 12.85172,-15.61042 5.44283,-6.6212 12.66921,-15.39535 16.05863,-19.49811 l 6.162574,-7.45956 v -5.37724 c 0,-17.52858 -2.16157,-26.61707 -7.005664,-29.4559 -1.58686,-0.92996 -2.62717,-1.19899 -4.65014,-1.20254 -3.79815,-0.007 -6.25357,1.0725 -9.53271,4.18969 -1.26292,1.20055 -2.39973,2.18104 -2.52625,2.17888 -0.12652,-0.002 -0.70256,-0.40367 -1.2801,-0.89223 -1.00496,-0.85014 -1.03531,-0.921 -0.70665,-1.64971 0.83527,-1.85198 4.03313,-6.23323 5.98045,-8.19354 4.69069,-4.72199 9.4312,-6.76565 14.23303,-6.13593 7.825434,1.02624 11.803294,11.07154 12.240604,30.91117 0.16177,7.33916 0.26443,8.71835 0.649,8.71835 0.12861,0 3.19608,-4.07789 6.8166,-9.06198 3.62051,-4.98409 9.87728,-13.59891 13.90392,-19.14404 l 7.32116,-10.08205 1.63177,-0.17055 c 0.89747,-0.0938 4.11461,-0.17056 7.1492,-0.17056 h 5.51744 v 0.9554 c 0,1.02513 0.54316,0.34049 -9.42247,11.8769 -1.8856,2.18281 -9.05831,10.49852 -15.93936,18.47935 -6.88105,7.98082 -13.40717,15.54129 -14.50251,16.80104 l -1.99151,2.29045 0.17276,6.74687 c 0.45165,17.63811 2.13636,27.75428 5.31643,31.92358 1.11271,1.45884 2.80253,2.2726 5.01386,2.41452 3.47353,0.22292 6.43771,-0.90331 9.3761,-3.5624 l 1.59239,-1.44104 1.06403,0.85508 c 0.63506,0.51035 1.06403,1.07981 1.06403,1.41252 0,0.30659 -0.52316,1.47547 -1.16259,2.59751 -3.47476,6.09742 -7.7808,10.00556 -12.57762,11.41537 -2.72555,0.80105 -7.46446,0.45535 -9.67541,-0.70582 -2.40131,-1.26114 -4.4576,-4.81361 -5.39642,-9.32286 -0.9543,-4.58365 -1.13347,-7.58915 -1.25394,-21.03437 -0.0645,-7.20328 -0.17446,-13.36477 -0.24426,-13.69219 -0.0698,-0.32742 -0.27348,-0.59275 -0.45261,-0.58963 -0.17913,0.003 -1.51631,1.6797 -2.97152,3.72572 -1.455214,2.04602 -2.883964,4.05079 -3.175004,4.45504 -0.29104,0.40426 -0.76729,1.07909 -1.05834,1.49963 -0.92019,1.32963 -23.10182,32.43551 -24.41283,34.23476 l -1.25312,1.71979 -6.94463,0.0705 -6.94462,0.0705 z"
       id="path1" /></g></svg>
